<svg xmlns="http://www.w3.org/2000/svg" version="1.1" xmlns:xlink="http://www.w3.org/1999/xlink" xmlns:svgjs="http://svgjs.dev/svgjs" width="1000" height="623" viewBox="0 0 1000 623"><g transform="matrix(1,0,0,1,-0.6060606060606233,0.2522267206477409)"><svg viewBox="0 0 396 247" data-background-color="#ffffff" preserveAspectRatio="xMidYMid meet" height="623" width="1000" xmlns="http://www.w3.org/2000/svg" xmlns:xlink="http://www.w3.org/1999/xlink"><g id="tight-bounds" transform="matrix(1,0,0,1,0.2400000000000091,-0.09999999999999432)"><svg viewBox="0 0 395.52 247.2" height="247.2" width="395.52"><g><svg></svg></g><g><svg viewBox="0 0 395.52 247.2" height="247.2" width="395.52"><g transform="matrix(1,0,0,1,75.54432,61.35903449006623)"><svg viewBox="0 0 244.43135999999998 124.48193101986753" height="124.48193101986753" width="244.43135999999998"><g><svg viewBox="0 0 244.43135999999998 124.48193101986753" height="124.48193101986753" width="244.43135999999998"><g><svg viewBox="0 0 244.43135999999998 124.48193101986753" height="124.48193101986753" width="244.43135999999998"><g><svg viewBox="0 0 244.43135999999998 124.48193101986753" height="124.48193101986753" width="244.43135999999998"><g id="textblocktransform"><svg viewBox="0 0 244.43135999999998 124.48193101986753" height="124.48193101986753" width="244.43135999999998" id="textblock"><g><svg viewBox="0 0 244.43135999999998 124.48193101986753" height="124.48193101986753" width="244.43135999999998"><g transform="matrix(1,0,0,1,0,0)"><svg width="244.43135999999998" viewBox="0.550000011920929 -38.099998474121094 75.5 38.44999694824219" height="124.48193101986753" data-palette-color="#0063db"><path d="M33-37.45L33-37.7Q34.05-38.1 35.95-38.1 37.85-38.1 39.35-37.85L39.35-37.85Q37.8-26.35 36.93-17.03 36.05-7.7 35.98-7.2 35.9-6.7 35.9-6.3L35.9-6.3Q35.95-5 37.15-5L37.15-5Q40.15-5 45.5-11.9L45.5-11.9Q46.45-9.25 46.6-8.35L46.6-8.35Q44.2-4.55 40.83-2.13 37.45 0.3 34.45 0.3 31.45 0.3 30.3-1.25 29.15-2.8 29.15-4.7L29.15-4.7Q29.15-5.15 29.28-6.45 29.4-7.75 31.25-22.65L31.25-22.65 23.05-3.7 18.8-3.7 16.35-22.35 12.85-6.85Q12-3.15 10.08-1.4 8.15 0.35 5.85 0.35 3.55 0.35 2.1-1L2.1-1Q0.55-2.45 0.55-5.1L0.55-5.1Q0.55-10.4 8.75-14.15L8.75-14.15Q13.2-35.5 13.55-37.8L13.55-37.8Q14.75-38.1 16.78-38.1 18.8-38.1 19.55-38L19.55-38 19.9-38 23-14.75 33-37.45ZM4.1-5.95L4.1-5.95Q4.1-4.35 5.35-4.35L5.35-4.35Q6.2-4.35 6.75-5.7L6.75-5.7Q7.45-7.35 7.9-10.05L7.9-10.05Q4.1-7.9 4.1-5.95ZM42.6-27.05L42.6-27.05Q42.6-31.8 46.8-34.93 51-38.05 57.9-38.05L57.9-38.05Q61.55-38.05 64.45-37.33 67.35-36.6 69.05-35.5 70.75-34.4 71.9-32.95L71.9-32.95Q73.8-30.45 73.77-27.38 73.75-24.3 71.35-21.9 68.95-19.5 65.55-19.4L65.55-19.4Q69.8-19.1 72.92-16.6 76.05-14.1 76.05-10.3L76.05-10.3Q76.05-5.3 72.2-2.5 68.35 0.3 62.82 0.3 57.3 0.3 55.3-1.15L55.3-1.15 56.85-5.35Q59.05-4.2 61.97-4.2 64.9-4.2 66.75-5.93 68.6-7.65 68.6-10.5 68.6-13.35 66.07-15.3 63.55-17.25 59.2-17.25L59.2-17.25 59.65-20.95Q62.65-20.95 64.72-22.38 66.8-23.8 66.87-26.65 66.95-29.5 64.3-31.45L64.3-31.45Q61.45-33.5 56.5-33.5L56.5-33.5Q53.25-33.5 50.15-31.83 47.05-30.15 47.05-27.35L47.05-27.35Q47.05-26 48.15-25.08 49.25-24.15 51.05-23.95L51.05-23.95 50.5-20.25Q46.7-20.4 44.65-22.4 42.6-24.4 42.6-27.05ZM56.9-9.6Q56.1-4.25 53.8-2.02 51.5 0.2 48.4 0.2 45.3 0.2 43.7-1.4 42.1-3 42.1-5.5L42.1-5.5Q42.1-11.4 51.05-15.55L51.05-15.55Q51.3-17.65 51.77-21.23 52.25-24.8 52.52-27 52.8-29.2 52.9-29.9L52.9-29.9Q54.95-31.2 57.65-31.2L57.65-31.2Q58.9-31.2 60.05-30.95L60.05-30.95 56.9-9.6ZM45.8-6.15L45.8-6.15Q45.8-4.35 47.5-4.35L47.5-4.35Q48.2-4.35 48.97-5.28 49.75-6.2 50.05-8.2L50.05-8.2 50.5-11.3Q45.8-8.65 45.8-6.15Z" opacity="1" transform="matrix(1,0,0,1,0,0)" fill="#0063db" class="undefined-text-0" data-fill-palette-color="primary" id="text-0"></path></svg></g></svg></g></svg></g></svg></g></svg></g></svg></g></svg></g><path d="M241.99 55.359L241.99 8.267 11.323 8.267 11.323 238.933 241.99 238.933 241.99 191.841 230.764 191.841 230.764 227.708 22.549 227.708 22.549 19.492 230.764 19.492 230.764 55.359Z" fill="#0063db" stroke="transparent" data-fill-palette-color="primary"></path></svg></g><defs></defs></svg><rect width="395.52" height="247.2" fill="none" stroke="none" visibility="hidden"></rect></g></svg></g></svg>